<?xml version="1.0" encoding="utf-8"?>
<!-- Generator: Adobe Illustrator 23.0.2, SVG Export Plug-In . SVG Version: 6.00 Build 0)  -->
<svg version="1.1" id="レイヤー_1" xmlns="http://www.w3.org/2000/svg" xmlns:xlink="http://www.w3.org/1999/xlink" x="0px"
	 y="0px" viewBox="0 0 595.28 595.28" style="enable-background:new 0 0 595.28 595.28;" xml:space="preserve">
<style type="text/css">
	.st0{fill:#CCCCCC;}
</style>
<g>
	<polygon points="463.05,444.35 125.23,108.8 107.11,127.04 444.94,462.58 	"/>
	<polygon points="86.05,172.56 105.5,106.96 174.71,92.04 52.11,53.59 	"/>
	<polygon points="436.44,541.69 436.69,470.15 408.27,441.53 408.03,513.07 	"/>
	<polygon points="397.99,502.97 398.24,431.42 369.83,402.81 369.59,474.35 	"/>
	<polygon class="st0" points="358.4,391.33 329.97,362.69 329.74,434.23 358.17,462.86 	"/>
	<polygon points="543.17,434.1 514.24,405.98 442.71,406.99 471.64,435.1 	"/>
	<polygon points="504.05,396.06 475.12,367.95 403.59,368.94 432.52,397.06 	"/>
	<polygon class="st0" points="363.06,329.54 391.99,357.65 463.53,356.65 434.58,328.53 	"/>
</g>
</svg>
