<?xml version="1.0" encoding="utf-8"?>
<!-- Generator: Adobe Illustrator 23.0.2, SVG Export Plug-In . SVG Version: 6.00 Build 0)  -->
<svg version="1.1" id="レイヤー_2" xmlns="http://www.w3.org/2000/svg" xmlns:xlink="http://www.w3.org/1999/xlink" x="0px"
	 y="0px" viewBox="0 0 595.28 595.28" style="enable-background:new 0 0 595.28 595.28;" xml:space="preserve">
<style type="text/css">
	.st0{fill:#CCCCCC;}
	.st1{display:none;opacity:0.5;fill:#CCCCCC;}
	.st2{display:none;opacity:0.24;fill:#CCCCCC;}
</style>
<g>
	<path class="st0" d="M273.6,39.9c1.91-3.31,4.07-6.42,6.43-9.34c-74.76-3.82-143.78,26.84-178.61,87.17
		c-34.9,60.45-26.85,135.72,14.05,198.64c1.47-4.24,3.34-8.37,5.63-12.34c21.03-36.43,70.67-48.8,120.14-33.5l63.41-109.84
		C266.67,125.5,252.57,76.33,273.6,39.9z"/>
	<path class="st0" d="M491.04,151.42c-1.4,3.78-3.11,7.47-5.17,11.03c-20.96,36.3-70.32,48.71-119.62,33.67l-63.53,110.04
		c37.68,35.18,51.61,84.13,30.66,120.43c-2.44,4.22-5.26,8.12-8.43,11.7c75.65,4.58,145.72-26.1,180.91-87.05
		C540.98,290.41,532.61,214.57,491.04,151.42z"/>
	<path class="st1" d="M366.25,196.12l7.44-12.89l-61.53-35.53l-7.5,12.99c8.4,7.78,17.96,14.89,28.58,21.02
		C344.02,187.94,355.14,192.73,366.25,196.12z"/>
	<path class="st1" d="M241.25,270.53l-7.54,13.07l61.53,35.53l7.48-12.96c-8.5-7.93-18.2-15.16-28.98-21.39
		C263.12,278.65,252.19,273.92,241.25,270.53z"/>
	<path class="st2" d="M333.24,181.72c-10.62-6.13-20.18-13.23-28.58-21.02l-63.41,109.84c10.94,3.38,21.88,8.11,32.49,14.24
		c10.78,6.23,20.48,13.46,28.98,21.39l63.53-110.04C355.14,192.73,344.02,187.94,333.24,181.72z"/>
	<path class="st1" d="M333.24,181.72c-10.62-6.13-20.18-13.23-28.58-21.02l-63.41,109.84c10.94,3.38,21.88,8.11,32.49,14.24
		c10.78,6.23,20.48,13.46,28.98,21.39l63.53-110.04C355.14,192.73,344.02,187.94,333.24,181.72z"/>
</g>
<rect x="211.54" y="134.08" transform="matrix(0.866 0.5 -0.5 0.866 210.8555 -66.8577)" width="37.28" height="451.9"/>
</svg>
