<?xml version="1.0" encoding="utf-8"?>
<!-- Generator: Adobe Illustrator 23.0.2, SVG Export Plug-In . SVG Version: 6.00 Build 0)  -->
<svg version="1.1" id="レイヤー_1" xmlns="http://www.w3.org/2000/svg" xmlns:xlink="http://www.w3.org/1999/xlink" x="0px"
	 y="0px" viewBox="0 0 595.28 595.28" style="enable-background:new 0 0 595.28 595.28;" xml:space="preserve">
<style type="text/css">
	.st0{fill:#CCCCCC;}
</style>
<g>
	<path d="M339.79,183.24l-37.66-10.6c5.78-15.37,18.39-42.05,37.54-46.09c24.48-5.15,67.6-0.53,92.5,2.92l-0.09,1.59
		c21.45,23.47,52.66,19.19,76.55,4.07c-3.92-1.55-8.13-1.97-12.25-2.8c11.33-5.35,26.05-4,36.24-12.84
		c-5.19-0.28-10.54,0.21-15.71-0.21c10.52-7.99,24.27-17.43,31.03-29.69c-8.3,4.71-18.72,8.36-28.32,8.39
		c3.59-3.83,7.54-7.93,10.39-12.24c-12.91-2.71-24.16,0.78-36.2,4.47c1.97-3.45,4.61-6.46,6.84-9.68
		c-29.25-1.24-54.98,12.74-67.91,39.51v0.04c-25.56-3.53-69.13-8.11-94.98-2.67c-23.96,5.05-38.43,35.82-44.67,52.68l-34.12-9.61
		l-11.72,41.65c29.34,0.46,57,7.91,81.39,20.8L339.79,183.24z"/>
	<path class="st0" d="M244.38,555.09c95.06,0,172.14-77.08,172.14-172.14c0-65.44-36.53-122.34-90.3-151.47
		c-24.24-13.12-51.96-20.59-81.42-20.66c-0.15,0-0.29-0.01-0.42-0.01c-95.07,0-172.14,77.07-172.14,172.14
		C72.24,478.02,149.31,555.09,244.38,555.09z"/>
</g>
</svg>
