<?xml version="1.0" encoding="utf-8"?>
<!-- Generator: Adobe Illustrator 23.0.2, SVG Export Plug-In . SVG Version: 6.00 Build 0)  -->
<svg version="1.1" xmlns="http://www.w3.org/2000/svg" xmlns:xlink="http://www.w3.org/1999/xlink" x="0px" y="0px"
	 viewBox="0 0 595.28 595.28" style="enable-background:new 0 0 595.28 595.28;" xml:space="preserve">
<style type="text/css">
	.st0{display:none;}
	.st1{display:inline;}
	.st2{fill:#CCCCCC;}
</style>
<g id="レイヤー_1" class="st0">
	<path id="_x39_9" class="st1" d="M483.63,182.75c-3.88-16.01-18.14-26.76-33.95-26.77c-2.72,0-5.49,0.33-8.22,1v-0.01
		c-8.35,2.02-15.21,6.9-19.93,13.3l-43.85-19.65c0.27-1.42,0.62-2.8,0.71-4.28l-9.98-0.67l9.98,0.66l0.08-2.41
		c0-18.27-14.13-33.6-32.59-34.88l-72.02-4.91l-2.39-0.08c-18.28,0-33.64,14.12-34.92,32.61l-0.08,2.4c0,0.76,0.17,1.48,0.22,2.23
		l-39.42,11.31c-6.62-9.81-17.63-15.44-29.01-15.42c-5.13-0.01-10.35,1.13-15.22,3.5L88.05,172.2
		c-12.45,6.05-19.75,18.52-19.73,31.5c-0.01,5.13,1.13,10.36,3.51,15.25c6.04,12.45,18.53,19.73,31.5,19.72
		c5.12,0,10.35-1.14,15.24-3.51l64.96-31.52c12.46-6.06,19.73-18.54,19.72-31.5c0-0.15-0.05-0.3-0.05-0.46l40.48-11.6
		c5.9,7.76,14.88,13.13,25.38,13.87l72.04,4.91l2.42,0.08c9.69-0.01,18.48-4.06,24.84-10.56l46.42,20.8
		c-0.03,0.61-0.15,1.18-0.15,1.79c0,2.71,0.32,5.48,0.99,8.21l16.94,70.18c0.91,3.72,2.41,7.12,4.33,10.21l-32.71,43.78
		c-3.83-1.39-7.81-2.27-11.85-2.27c-7.89,0-15.91,2.7-22.42,8.15l-55.36,46.36c-8.24,6.9-12.54,16.89-12.53,26.86
		c-0.01,3.96,0.67,7.95,2.04,11.78l-44.87,24.23c-6.17-5.19-14.05-8.23-22.44-8.23c-2.29,0-4.6,0.23-6.9,0.68l-70.78,14.25
		c-16.63,3.37-28.13,17.93-28.12,34.31c0,2.28,0.23,4.59,0.68,6.89c3.37,16.61,17.92,28.1,34.3,28.1c2.28,0,4.61-0.22,6.93-0.69
		l70.77-14.24c16.61-3.38,28.09-17.92,28.09-34.27c0-2.29-0.23-4.6-0.68-6.92l-9.8,1.97l9.8-1.98c-0.21-1.07-0.61-2.04-0.91-3.07
		l45.96-24.8c6.14,4.58,13.52,6.96,20.91,6.95c7.9,0,15.94-2.7,22.47-8.17l55.35-46.34c8.25-6.91,12.54-16.89,12.52-26.85
		c0.01-7.29-2.4-14.63-7.05-20.85l31.66-42.37c4.51,2.1,9.46,3.34,14.62,3.34c2.73,0,5.49-0.32,8.23-0.99
		c16.01-3.92,26.77-18.18,26.77-34c0-2.72-0.32-5.48-0.98-8.22L483.63,182.75z M174.81,185.65l-64.95,31.51
		c-2.13,1.03-4.33,1.49-6.52,1.5c-5.6-0.02-10.94-3.12-13.51-8.44c-1.04-2.15-1.51-4.35-1.51-6.53c0.01-5.58,3.1-10.92,8.46-13.52
		l64.96-31.51c2.12-1.03,4.32-1.49,6.5-1.49c2.41,0,4.73,0.68,6.85,1.77l-19.3,5.54c-5.31,1.51-8.38,7.06-6.85,12.36
		c1.52,5.31,7.06,8.38,12.36,6.86l20.72-5.95C180.68,181.07,178.28,183.97,174.81,185.65z M343.53,158.94l-1.06-0.04l-72.03-4.9
		c-1.15-0.08-2.25-0.31-3.31-0.63l11.61-3.33c5.31-1.52,8.38-7.06,6.86-12.36c-1.52-5.31-7.06-8.38-12.36-6.86l-16.32,4.68
		c1.63-6.64,7.61-11.44,14.55-11.44l1.01,0.03l72.04,4.92c7.21,0.47,12.82,6.03,13.76,12.93l-14.14-6.34
		c-5.04-2.26-10.96,0-13.22,5.04s0,10.96,5.04,13.21l10.61,4.76C345.58,158.81,344.57,158.94,343.53,158.94z M239.71,479.9
		l-70.77,14.24c-1.01,0.21-2.01,0.3-2.99,0.3c-6.97,0-13.28-4.94-14.69-12.04c-0.2-0.99-0.29-1.98-0.29-2.95
		c0-6.97,4.91-13.27,12.07-14.7l70.76-14.25c1-0.21,1.98-0.29,2.96-0.29c0.16,0,0.32,0.08,0.48,0.09L224,457.45
		c-4.86,2.63-6.68,8.69-4.05,13.54c2.63,4.86,8.69,6.68,13.54,4.05l18.24-9.85c0,0.02,0.01,0.03,0.01,0.05
		C251.75,472.18,246.82,478.5,239.71,479.9z M407.35,356.04c-0.01,4.32-1.81,8.53-5.36,11.51l-55.34,46.34
		c-1.6,1.33-3.38,2.18-5.21,2.74c4.46-2.76,6.13-8.5,3.6-13.18c-2.63-4.85-8.69-6.67-13.55-4.04l-9.14,4.93
		c-0.08-0.64-0.32-1.26-0.32-1.9c0.01-4.33,1.81-8.54,5.37-11.52l55.35-46.36c2.37-1.97,5.14-2.9,7.98-3.2l-8.95,11.97
		c-3.31,4.42-2.4,10.69,2.02,13.99c4.42,3.31,10.69,2.4,13.99-2.02l9.06-12.13C407.05,354.13,407.35,355.07,407.35,356.04z
		 M470.11,275.74c-1.18,0.28-2.37,0.42-3.53,0.42c-0.66,0-1.28-0.24-1.93-0.33l6.28-8.4c3.31-4.42,2.4-10.69-2.02-13.99
		c-4.42-3.31-10.69-2.4-14,2.02l-3.87,5.19l-14.95-61.92l11.35,5.09c5.04,2.26,10.96,0,13.21-5.04c2.27-5.04,0.01-10.96-5.03-13.22
		l-14.74-6.6c1.55-1.13,3.27-2.05,5.25-2.53l-2.34-9.72l2.36,9.72c1.19-0.29,2.37-0.43,3.52-0.43c6.7,0,12.9,4.62,14.51,11.45
		l16.97,70.2c0.28,1.19,0.42,2.37,0.42,3.54C481.58,267.9,476.96,274.1,470.11,275.74z"/>
</g>
<g id="レイヤー_2">
	<path class="st2" d="M102.36,239.34c-3.87,0-7.76-0.66-11.53-2c-8.67-3.07-15.62-9.31-19.56-17.57l-1.06-2.21
		c-8.16-17.1-0.89-37.66,16.21-45.82l66.84-31.91c8.26-3.94,17.58-4.43,26.26-1.36c8.67,3.07,15.62,9.31,19.56,17.57l1.06,2.21
		c8.16,17.1,0.89,37.66-16.21,45.82l-66.84,31.91C112.41,238.22,107.4,239.34,102.36,239.34z M168.04,156.49
		c-2.07,0-4.18,0.45-6.17,1.4L95.03,189.8c-7.15,3.41-10.19,12.01-6.78,19.16l1.06,2.21c1.64,3.44,4.55,6.04,8.19,7.33
		c3.64,1.29,7.53,1.09,10.97-0.55l66.84-31.91c7.15-3.41,10.19-12.01,6.78-19.16l-1.06-2.21
		C178.57,159.51,173.41,156.49,168.04,156.49z"/>
	<path d="M343.99,180.14c-0.89,0-1.79-0.03-2.7-0.1l-73.84-5.76c-9.13-0.71-17.44-4.95-23.42-11.94
		c-5.98-6.99-8.88-15.87-8.17-24.99l0.19-2.45c0.71-9.12,4.95-17.44,11.94-23.42c6.99-5.98,15.87-8.89,24.99-8.17l73.85,5.76
		c9.13,0.71,17.44,4.95,23.42,11.94c5.98,6.99,8.88,15.87,8.17,24.99l-0.19,2.44C376.83,166.43,361.74,180.14,343.99,180.14z
		 M342.85,160.1c7.9,0.61,14.83-5.31,15.44-13.21l0.19-2.44c0.3-3.8-0.92-7.51-3.43-10.44c-2.51-2.93-5.98-4.71-9.78-5l-73.84-5.76
		c-3.79-0.3-7.51,0.92-10.44,3.43c-2.93,2.51-4.71,5.98-5,9.78l-0.19,2.45c-0.62,7.9,5.31,14.82,13.21,15.44L342.85,160.1z"/>
	<path d="M464.91,296.61c-15.55,0-29.68-10.65-33.44-26.42l-17.13-72.06c-4.38-18.44,7.05-37,25.49-41.39l2.39-0.57
		c18.43-4.38,37,7.05,41.39,25.49l17.13,72.06c2.12,8.9,0.63,18.12-4.2,25.96c-4.82,7.83-12.38,13.31-21.29,15.43l-2.38,0.57
		C470.2,296.31,467.53,296.61,464.91,296.61z M450.93,265.57c1.83,7.71,9.6,12.49,17.3,10.65l2.38-0.57
		c3.71-0.88,6.86-3.18,8.89-6.46s2.65-7.13,1.77-10.84l-17.13-72.06c-1.83-7.71-9.6-12.49-17.3-10.65l-2.39,0.57
		c-3.71,0.88-6.86,3.18-8.88,6.46s-2.65,7.13-1.77,10.84L450.93,265.57z"/>
	<path d="M336.46,437.31c-10.15,0-20.2-4.46-26.97-13.01l-1.52-1.92c-5.68-7.17-8.23-16.16-7.17-25.29s5.59-17.3,12.77-22.98
		l58.06-45.99c14.85-11.77,36.51-9.25,48.28,5.6l1.52,1.92c5.68,7.17,8.23,16.16,7.17,25.3c-1.06,9.14-5.59,17.3-12.77,22.99
		l-58.06,45.99C351.46,434.88,343.93,437.31,336.46,437.31z M392.94,340.68c-3.13,0-6.27,1.01-8.91,3.1l-58.06,45.99
		c-6.21,4.92-7.26,13.97-2.34,20.18l1.52,1.92c4.92,6.21,13.97,7.26,20.18,2.34l58.06-45.99c2.99-2.37,4.88-5.78,5.32-9.61
		c0.44-3.83-0.61-7.59-2.98-10.58l-1.52-1.92C401.39,342.54,397.19,340.68,392.94,340.68z"/>
	<path d="M165.27,515.26c-6.68,0-13.23-1.96-18.94-5.75c-7.67-5.08-12.89-12.82-14.71-21.79l-0.49-2.4
		c-1.82-8.97-0.02-18.13,5.06-25.8c5.08-7.67,12.82-12.89,21.79-14.71l72.59-14.72c8.97-1.82,18.13-0.02,25.8,5.06
		c7.67,5.08,12.89,12.82,14.71,21.79l0.49,2.4c3.77,18.57-8.28,36.75-26.85,40.51h0l-72.59,14.72
		C169.85,515.03,167.55,515.26,165.27,515.26z M237.39,449.4c-0.95,0-1.9,0.09-2.84,0.29l-72.59,14.72
		c-3.73,0.76-6.97,2.94-9.1,6.16c-2.13,3.21-2.89,7.04-2.13,10.78l0.49,2.4c0.76,3.74,2.95,6.97,6.16,9.1
		c3.22,2.13,7.04,2.89,10.78,2.13l72.59-14.72c7.76-1.57,12.8-9.17,11.23-16.94l-0.49-2.4c-0.76-3.74-2.95-6.97-6.16-9.1
		C242.93,450.22,240.19,449.4,237.39,449.4z"/>
	<path class="st2" d="M158.73,184.4c-4.35,0-8.35-2.86-9.61-7.24c-1.52-5.31,1.54-10.85,6.85-12.37l117.65-33.78
		c5.3-1.52,10.85,1.54,12.37,6.85c1.52,5.31-1.54,10.85-6.85,12.37l-117.65,33.78C160.57,184.28,159.64,184.4,158.73,184.4z"/>
	<path d="M451.1,204.53c-1.35,0-2.72-0.27-4.04-0.86L335.1,154.18c-5.05-2.23-7.34-8.14-5.1-13.19c2.23-5.05,8.14-7.34,13.19-5.1
		l111.96,49.49c5.05,2.23,7.34,8.14,5.1,13.19C458.6,202.31,454.94,204.53,451.1,204.53z"/>
	<path d="M389.68,369.73c-2.07,0-4.16-0.64-5.95-1.97c-4.44-3.29-5.37-9.55-2.08-13.99l72.88-98.35c3.29-4.44,9.55-5.37,13.99-2.08
		c4.44,3.29,5.37,9.55,2.08,13.99l-72.88,98.35C395.76,368.33,392.74,369.73,389.68,369.73z"/>
	<path d="M228.72,476.23c-3.57,0-7.02-1.91-8.82-5.28c-2.61-4.87-0.78-10.93,4.09-13.54l107.88-57.85
		c4.87-2.61,10.93-0.78,13.54,4.09c2.61,4.87,0.78,10.93-4.09,13.54l-107.88,57.85C231.93,475.85,230.32,476.23,228.72,476.23z"/>
</g>
</svg>
