<?xml version="1.0" encoding="utf-8"?>
<!-- Generator: Adobe Illustrator 23.0.3, SVG Export Plug-In . SVG Version: 6.00 Build 0)  -->
<svg version="1.1" xmlns="http://www.w3.org/2000/svg" xmlns:xlink="http://www.w3.org/1999/xlink" x="0px" y="0px"
	 viewBox="0 0 515.91 515.91" style="enable-background:new 0 0 515.91 515.91;" xml:space="preserve">
<style type="text/css">
	.st0{display:none;}
	.st1{fill:#FFFFFF;}
	.st2{fill:none;stroke:#FFFFFF;stroke-width:10;stroke-miterlimit:10;}
	.st3{fill:#FFFFFF;stroke:#000000;stroke-width:19;stroke-miterlimit:10;}
	.st4{fill:#CCCCCC;}
	.st5{fill:#000000;}
</style>
<g id="レイヤー_1">
	<g class="st0">
		<path d="M257.95,223.47c7.3,0,14.07,2.28,19.65,6.17V28.04L257.56,0l-19.28,28.04v201.61
			C243.87,225.76,250.64,223.47,257.95,223.47z"/>
		<path d="M257.95,292.44c-7.31,0-14.09-2.29-19.67-6.18v201.58l19.28,28.07l20.04-28.07V286.27
			C272.02,290.16,265.25,292.44,257.95,292.44z"/>
		<path d="M223.47,257.95c0-7.3,2.29-14.08,6.17-19.66H28.05l-28.07,19.28l28.07,20.04h201.59
			C225.75,272.03,223.47,265.25,223.47,257.95z"/>
		<path d="M487.85,238.29H286.26c3.89,5.58,6.17,12.36,6.17,19.66c0,7.3-2.29,14.08-6.17,19.66h201.59l28.04-20.04L487.85,238.29z"
			/>
	</g>
	<g>
		<path d="M136.46,164.27c8.04-10.41,17.39-19.76,27.8-27.8l-54.99-54.99l-34-5.66l6.2,33.46L136.46,164.27z"/>
		<path d="M379.43,164.26l54.98-54.98l5.66-34l-33.46,6.2l-54.98,54.98C362.04,144.5,371.39,153.85,379.43,164.26z"/>
		<path d="M379.43,351.65c-8.04,10.41-17.39,19.76-27.8,27.8l54.96,54.96l33.48,6.21l-5.68-34.02L379.43,351.65z"/>
		<path d="M136.46,351.63l-54.97,54.97l-6.21,33.48l34.02-5.68l54.97-54.97C153.85,371.39,144.5,362.04,136.46,351.63z"/>
	</g>
	<g>
		<path d="M105.81,277.61c-1.68-13.05-1.68-26.27,0-39.32l-77.77,0L0,258.33l28.04,19.28L105.81,277.61z"/>
		<path d="M277.61,105.79l0-77.75L257.57,0l-19.28,28.04l0,77.75C251.34,104.12,264.56,104.12,277.61,105.79z"/>
		<path d="M410.11,238.29c1.68,13.05,1.67,26.27,0,39.32l77.73,0l28.07-19.28l-28.07-20.04L410.11,238.29z"/>
		<path d="M238.29,410.09l0,77.75l19.28,28.07l20.04-28.07l0-77.74C264.56,411.77,251.34,411.77,238.29,410.09z"/>
	</g>
	<circle cx="257.95" cy="257.95" r="202.47"/>
	<path class="st1" d="M257.95,63.85c-107.03,0-194.1,87.07-194.1,194.1c0,107.03,87.07,194.1,194.1,194.1
		c107.03,0,194.1-87.07,194.1-194.1C452.06,150.92,364.98,63.85,257.95,63.85z M257.95,432.06c-96,0-174.1-78.1-174.1-174.1
		s78.1-174.1,174.1-174.1s174.1,78.1,174.1,174.1S353.95,432.06,257.95,432.06z"/>
	<circle class="st1" cx="257.95" cy="257.95" r="153.42"/>
	<circle class="st2" cx="257.95" cy="257.95" r="155.15"/>
</g>
<g id="レイヤー_2">
	<path class="st3" d="M257.95,233.47c-13.5,0-24.49,10.98-24.49,24.49s10.98,24.49,24.49,24.49s24.49-10.98,24.49-24.49
		S271.46,233.47,257.95,233.47z"/>
	<g>
		<path class="st4" d="M238.28,238.29V105.78c-69,8.83-123.67,63.5-132.5,132.51H238.28z"/>
		<path class="st5" d="M277.6,238.29h132.52c-8.83-69.01-63.51-123.69-132.52-132.51V238.29z"/>
		<path class="st4" d="M277.6,277.61v132.51c69.02-8.82,123.7-63.5,132.52-132.51H277.6z"/>
		<path class="st5" d="M238.28,277.61h-132.5c8.83,69.01,63.49,123.68,132.5,132.51V277.61z"/>
	</g>
</g>
</svg>
