<?xml version="1.0" encoding="utf-8"?>
<!-- Generator: Adobe Illustrator 23.0.2, SVG Export Plug-In . SVG Version: 6.00 Build 0)  -->
<svg version="1.1" xmlns="http://www.w3.org/2000/svg" xmlns:xlink="http://www.w3.org/1999/xlink" x="0px" y="0px"
	 viewBox="0 0 595.28 595.28" style="enable-background:new 0 0 595.28 595.28;" xml:space="preserve">
<style type="text/css">
	.st0{display:none;}
	.st1{display:inline;opacity:0.24;}
	.st2{fill:#B5B5B5;}
</style>
<g id="レイヤー_1" class="st0">
	<path class="st1" d="M323,576.53l-8.13-352.81l22.07-0.08c9.03-0.03,17.18-6.75,21.03-17.04c1.81,2.61,3.85,3.94,6.03,3.93
		c1.63-0.01,3.15-0.75,4.56-2.2c1.15,7.64,3.29,17.94,6.78,21.43c0.92,0.92,1.92,1.38,2.96,1.38c3.53-0.02,41.06-0.15,44.59-0.17
		c0.96-0.01,1.93-0.5,2.91-1.49c5.02-5.04,9.81-43.61,9.69-77.28c-0.12-33.59-5.56-50.95-10.59-55.99c-0.99-0.99-1.99-1.5-2.95-1.49
		l-44.58,0.17c-5.14,0.02-8.01,11.73-9.58,22.88c-1.45-1.36-2.96-2.18-4.57-2.17c-1.6,0.01-3.8,0.78-5.98,3.98
		c-1.57-4.11-3.85-7.71-6.69-10.55c-4.17-4.17-9.17-6.36-14.48-6.34l-79.53,0.3c-8.96,0.03-16.89,6.41-20.84,16.48
		c-1.71-2.25-3.58-3.37-5.58-3.37c-1.63,0.01-3.15,0.75-4.56,2.2c-1.15-7.64-3.29-17.93-6.78-21.42c-0.92-0.92-1.92-1.38-2.97-1.38
		l-44.58,0.17c-0.95,0-1.93,0.51-2.91,1.48c-5.02,5.05-10.33,22.44-10.2,56.09c0.12,33.6,6.07,72.14,11.11,77.18
		c0.99,0.99,1.98,1.49,2.94,1.49c2.68,0,24.8-0.09,36.95-0.13l7.64-0.02c5.13-0.02,8-11.75,9.58-22.89
		c1.44,1.62,2.97,2.17,4.57,2.17c2.02,0,3.88-1.15,5.56-3.41c1.56,3.87,3.76,7.28,6.46,9.97c4.17,4.17,9.19,6.37,14.5,6.35
		l23.68-0.09l-8.84,352.87c-0.35,15.21,4.3,29.54,12.15,37.39c3.99,3.99,8.62,6.09,13.4,6.07c4.85-0.02,9.53-2.22,13.55-6.37
		C319,605.85,323.47,591.56,323,576.53z"/>
</g>
<g id="レイヤー_2">
	<g>
		<path d="M253.6,229.53l-24.02,24.02l233.87,246.42l10.64,10.64c0,0,30.31,28.03,47.25,11.21C538.29,505,510.1,474.6,510.1,474.6
			l-10.64-10.64L253.6,229.53z"/>
		<path d="M93.84,207.83c-7.22,7.22-13.48,13.48-15.48,15.48c-0.43,0.43-0.67,0.67-0.67,0.67c-2,2-8.26,8.26-15.48,15.48
			c-11.49,11.49,84.64,107.63,96.14,96.14c7.14-7.14,13.47-13.47,15.48-15.48c0,0,0.24-0.24,0.67-0.67
			c2.01-2.01,8.34-8.34,15.48-15.48C201.48,292.47,105.34,196.34,93.84,207.83z"/>
		<path d="M240.42,61.26c-7.22,7.22-13.48,13.48-15.48,15.48c-0.43,0.43-0.67,0.67-0.67,0.67c-2,2-8.26,8.26-15.48,15.48
			c-11.49,11.49,84.64,107.63,96.14,96.14c7.14-7.14,13.47-13.47,15.48-15.48c0,0,0.24-0.24,0.67-0.67
			c2.01-2.01,8.34-8.34,15.48-15.48C348.05,145.9,251.91,49.76,240.42,61.26z"/>
		<ellipse transform="matrix(0.7071 -0.7071 0.7071 0.7071 -129.0032 179.5104)" cx="152.19" cy="245.48" rx="17.14" ry="47.39"/>
		<ellipse transform="matrix(0.7071 -0.7071 0.7071 0.7071 -34.7127 218.5668)" cx="246.48" cy="151.19" rx="17.14" ry="47.39"/>
		<path class="st2" d="M268.01,215.12l-37.43,37.43L215.14,268c-9.05,9.05-23.86,9.05-32.91,0l-52.87-52.87
			c-9.05-9.05-9.05-23.86,0-32.91l52.87-52.87c9.05-9.05,23.86-9.05,32.91,0l52.87,52.87C277.06,191.26,277.06,206.07,268.01,215.12
			z"/>
	</g>
</g>
</svg>
