<?xml version="1.0" encoding="utf-8"?>
<!-- Generator: Adobe Illustrator 23.0.2, SVG Export Plug-In . SVG Version: 6.00 Build 0)  -->
<svg version="1.1" xmlns="http://www.w3.org/2000/svg" xmlns:xlink="http://www.w3.org/1999/xlink" x="0px" y="0px"
	 viewBox="0 0 581 581" style="enable-background:new 0 0 581 581;" xml:space="preserve">
<style type="text/css">
	.st0{display:none;}
	.st1{display:inline;}
	.st2{fill:#4B4B4B;}
	.st3{fill:#CCCCCC;}
</style>
<g id="_x32_" class="st0">
	<g class="st1">
		<path class="st2" d="M439.59,327.94L151.56,42.3L0,343.12l163.44,25.08c3.28,54.08,48.02,96.94,102.94,96.95
			c44.03-0.02,81.5-27.59,96.34-66.41l38.25,5.88l33.77,65.08L512,316.34L439.59,327.94z M317.22,412.75
			c-13.06,13.03-30.94,21.06-50.84,21.06s-37.8-8.03-50.84-21.06c-10.53-10.55-17.72-24.28-20.13-39.66l135.31,20.75
			C327.25,400.84,322.7,407.25,317.22,412.75z"/>
	</g>
</g>
<g id="レイヤー_2">
	<path d="M300.75,499.5c-56.38,0-102.25-46.42-102.25-103.48s45.87-103.48,102.25-103.48c56.38,0,102.25,46.42,102.25,103.48
		S357.13,499.5,300.75,499.5z M300.75,321.55c-40.39,0-73.25,33.41-73.25,74.48s32.86,74.48,73.25,74.48S374,437.09,374,396.03
		S341.14,321.55,300.75,321.55z"/>
	<polygon class="st3" points="34.5,377.63 435.47,439.13 474.09,362.44 186.06,76.8 	"/>
	<polygon class="st3" points="469.24,504.2 546.5,350.84 474.09,362.44 435.47,439.13 	"/>
</g>
</svg>
