<?xml version="1.0" encoding="utf-8"?>
<!-- Generator: Adobe Illustrator 23.0.2, SVG Export Plug-In . SVG Version: 6.00 Build 0)  -->
<svg version="1.1" xmlns="http://www.w3.org/2000/svg" xmlns:xlink="http://www.w3.org/1999/xlink" x="0px" y="0px"
	 viewBox="0 0 595.28 595.28" style="enable-background:new 0 0 595.28 595.28;" xml:space="preserve">
<style type="text/css">
	.st0{display:none;}
	.st1{display:inline;}
	.st2{fill:#FFFFFF;}
	.st3{fill:#CCCCCC;}
</style>
<g id="レイヤー_1" class="st0">
	<g class="st1">
		<path d="M459.53,166.52c-2.95-3.13-6.14-6.01-9.53-8.66l16.47-71.09l-36.62,59.43c-9.38-3.77-19.57-5.91-30.25-6.05L375.02,23.52
			l-4.93,121.61c-8.95,3.22-17.22,7.85-24.47,13.73l-44.96-37.05l31.65,50.66c-4.31,5.51-7.95,11.55-10.8,18.05l-79,4.82
			l72.19,24.72c-0.05,1.33-0.19,2.64-0.19,4c0,7.43,1.04,14.58,2.87,21.45l-26.13,11.35l30.5,1.21c1.71,3.89,3.74,7.61,6.01,11.15
			L50.79,546.04l27.3,27.31l277.44-277.26c1.01,0.63,2,1.27,3.04,1.85l-7.47,49.53l24.58-42.67c5.4,1.53,11.01,2.5,16.8,2.92
			l30.42,85.04l-7.05-86.56c9.93-2.09,19.17-5.98,27.47-11.23l29.14,35.39l-16.46-45.23c5.03-4.74,9.48-10.07,13.23-15.94
			l93.86,15.89l-85.07-34.18c2.84-8.42,4.44-17.42,4.44-26.83c0-0.24-0.03-0.47-0.03-0.71l43.89-6.65l-45.33-8.01
			c-1.53-8.3-4.27-16.16-8.07-23.41l79.9-57.47L459.53,166.52z M395.51,189.64l-14.6,14.25l-10.37-47.27L395.51,189.64z
			 M382.67,244.24l23.73,1.6l-29.51,37.66L382.67,244.24z M364.68,234.62l-39.25-5.14l43.75-7.1L364.68,234.62z M414.88,195.36
			l31.52-25.72l-8.35,32.16L414.88,195.36z M419.35,237.2l16.73-11.6l23.82,36.68L419.35,237.2z"/>
	</g>
</g>
<g id="レイヤー_2">
	<circle cx="398.45" cy="223.8" r="84"/>
	<polygon class="st2" points="370.54,156.62 380.91,203.9 395.51,189.64 	"/>
	<polygon class="st2" points="325.42,229.49 364.68,234.62 369.17,222.39 	"/>
	<polygon class="st2" points="376.88,283.5 406.39,245.84 382.67,244.24 	"/>
	<polygon class="st2" points="419.35,237.2 459.9,262.29 436.08,225.6 	"/>
	<polygon class="st2" points="414.88,195.36 446.4,169.63 438.05,201.79 	"/>
</g>
<g id="レイヤー_3">
	<polygon class="st3" points="375.02,23.52 369.73,151.16 400.7,145.41 	"/>
	<polygon class="st3" points="242.52,195.34 319.35,221.64 327.37,190.16 	"/>
	<polygon points="422.9,392.76 415.29,299.39 390,300.78 	"/>
	<polygon points="563.08,285.07 472.44,248.65 463.21,268.16 	"/>
	<polygon points="466.99,189.53 552.8,127.8 452.02,169.63 	"/>
	<polygon points="300.67,121.81 334.86,176.53 349,161.64 	"/>
	<polygon points="466.46,86.77 427.32,150.28 449.03,162.03 	"/>
	<polygon points="526.31,216.69 477.49,224.6 477.49,208.06 	"/>
	<polygon points="439.63,290.49 472.45,330.36 454.14,280.05 	"/>
	<polygon points="291.26,256.86 320.31,244.24 325.42,258.21 	"/>
	<polygon points="351.1,347.47 378.8,299.39 359.57,291.32 	"/>
	<polygon points="50.79,546.04 78.09,573.35 363.02,289.08 335.26,262.2 	"/>
	<path d="M74.89,580.59l-30.13-30.13c-2.29-2.29-2.29-6.03,0-8.31h0c2.29-2.29,6.03-2.29,8.31,0l30.13,30.13
		c2.29,2.29,2.29,6.03,0,8.31h0C80.92,582.87,77.18,582.87,74.89,580.59z"/>
</g>
</svg>
