<?xml version="1.0" encoding="utf-8"?>
<!-- Generator: Adobe Illustrator 23.0.2, SVG Export Plug-In . SVG Version: 6.00 Build 0)  -->
<svg version="1.1" xmlns="http://www.w3.org/2000/svg" xmlns:xlink="http://www.w3.org/1999/xlink" x="0px" y="0px"
	 viewBox="0 0 500 500" style="enable-background:new 0 0 500 500;" xml:space="preserve">
<style type="text/css">
	.st0{fill:#CCCCCC;}
	.st1{fill:none;stroke:#000000;stroke-width:15;stroke-miterlimit:10;}
</style>
<g id="レイヤー_1">
	<g>
		<path d="M277.18,430.14c-0.54,0-0.98,0.44-0.98,0.98v4.4c0,0.54,0.44,0.98,0.98,0.98h4.91c0.54,0,0.98-0.44,0.98-0.98v-21.85
			c0-0.54-0.44-0.98-0.98-0.98h-44.19c-0.54,0-0.98,0.44-0.98,0.98v54.99c0,0.54,0.44,0.98,0.98,0.98h44.19
			c0.54,0,0.98-0.44,0.98-0.98v-21.85c0-0.54-0.44-0.98-0.98-0.98h-4.91c-0.54,0-0.98,0.44-0.98,0.98v4.41
			c0,0.54,0.44,0.98,0.98,0.98h0.49c0.54,0,0.98,0.44,0.98,0.98v1.41c0,0.54-0.44,0.98-0.98,0.98h-12.76
			c-0.54,0-0.98-0.44-0.98-0.98v-1.41c0-0.54,0.44-0.98,0.98-0.98h5.89c0.54,0,0.98-0.44,0.98-0.98v-4.41
			c0-0.54-0.44-0.98-0.98-0.98h-25.04c-0.54,0-0.98-0.44-0.98-0.98v-7.37c0-0.54,0.44-0.98,0.98-0.98h25.04
			c0.54,0,0.98-0.44,0.98-0.98v-4.4c0-0.54-0.44-0.98-0.98-0.98h-5.89c-0.54,0-0.98-0.44-0.98-0.98v-1.41
			c0-0.54,0.44-0.98,0.98-0.98h12.76c0.54,0,0.98,0.44,0.98,0.98v1.41c0,0.54-0.44,0.98-0.98,0.98H277.18z"/>
	</g>
	<g>
		<polygon class="st0" points="250,56.09 262.02,93.09 300.93,93.09 269.45,115.96 281.48,152.96 250,130.09 218.52,152.96 
			230.55,115.96 199.07,93.09 237.98,93.09 		"/>
		<path class="st0" d="M298.12,175.87L250,140.91l-48.12,34.96l18.38-56.57l-48.12-34.96h59.48L250,27.77l18.38,56.57h59.48
			l-48.12,34.96L298.12,175.87z M226,101.84l14.83,10.78l-5.67,17.44L250,119.28l14.83,10.78l-5.67-17.44L274,101.84h-18.34
			L250,84.4l-5.67,17.44H226z"/>
	</g>
	<circle class="st1" cx="250" cy="110.04" r="81.14"/>
</g>
<g id="レイヤー_2">
	<g>
		<path d="M289.95,196.54c0.04-7.44-6.46-11.55-14.06-12.01c-3.89-0.38-8.04,0.15-12.38,0.75c0-0.58,0-0.88,0-0.88h-26.97
			c0,0,0,0.3,0,0.88c-4.33-0.6-8.49-1.13-12.38-0.75c-7.6,0.46-14.1,4.56-14.06,12.01c0.34,11.8,10.91,23.02,26.44,27.19
			c0,80.24,0,255.72,0,260.66c0,6.41,26.47,5.13,27.13-0.64c0.09-0.74-0.06-178.97-0.13-260.03
			C279.06,219.53,289.62,208.32,289.95,196.54z M226.04,200.74c-0.02-4.46,3.9-7.16,8.46-7.6c0.67-0.09,1.35-0.13,2.04-0.14
			c0,5.18,0,12.53,0,21.52C230.24,211.47,226.21,206.35,226.04,200.74z M263.54,214.51c-0.01-8.98-0.01-16.32-0.02-21.51
			c0.69,0.01,1.37,0.05,2.04,0.14c4.57,0.44,8.49,3.14,8.46,7.6C273.86,206.34,269.84,211.46,263.54,214.51z"/>
		<g>
			<polygon class="st0" points="250,56.09 262.02,93.09 300.93,93.09 269.45,115.96 281.48,152.96 250,130.09 218.52,152.96 
				230.55,115.96 199.07,93.09 237.98,93.09 			"/>
			<path class="st0" d="M298.12,175.87L250,140.91l-48.12,34.96l18.38-56.57l-48.12-34.96h59.48L250,27.77l18.38,56.57h59.48
				l-48.12,34.96L298.12,175.87z M226,101.84l14.83,10.78l-5.67,17.44L250,119.28l14.83,10.78l-5.67-17.44L274,101.84h-18.34
				L250,84.4l-5.67,17.44H226z"/>
		</g>
	</g>
</g>
</svg>
