<?xml version="1.0" encoding="utf-8"?>
<!-- Generator: Adobe Illustrator 23.0.2, SVG Export Plug-In . SVG Version: 6.00 Build 0)  -->
<svg version="1.1" id="レイヤー_1" xmlns="http://www.w3.org/2000/svg" xmlns:xlink="http://www.w3.org/1999/xlink" x="0px"
	 y="0px" viewBox="0 0 595.28 595.28" style="enable-background:new 0 0 595.28 595.28;" xml:space="preserve">
<style type="text/css">
	.st0{display:none;}
	.st1{fill:#CCCCCC;}
</style>
<g>
	<polygon points="477.26,229.98 386.68,139.58 358.02,168.17 448.62,258.56 421.51,285.61 457.92,321.95 531.49,248.54 
		495.08,212.2 	"/>
	<polygon points="172.19,534.43 208.59,570.77 450.95,328.92 414.54,292.58 	"/>
	<polygon class="st0" points="525.26,182.09 502.05,205.25 538.46,241.6 561.67,218.43 	"/>
	<polygon points="417.03,59.83 380.62,23.52 138.28,265.38 174.67,301.71 	"/>
	<polygon class="st0" points="27.54,375.89 63.95,412.21 87.17,389.04 50.77,352.72 	"/>
	<polygon class="st1" points="50.79,425.34 87.19,389.02 50.81,352.72 14.42,389.04 	"/>
	<polygon class="st1" points="538.42,241.6 574.81,205.27 538.43,168.97 502.05,205.29 	"/>
	<polygon points="202.53,454.71 231.19,426.11 140.62,335.71 167.69,308.68 131.29,272.35 57.76,345.74 94.15,382.08 111.95,364.31 
			"/>
</g>
</svg>
