<?xml version="1.0" encoding="utf-8"?>
<!-- Generator: Adobe Illustrator 23.0.2, SVG Export Plug-In . SVG Version: 6.00 Build 0)  -->
<svg version="1.1" xmlns="http://www.w3.org/2000/svg" xmlns:xlink="http://www.w3.org/1999/xlink" x="0px" y="0px"
	 viewBox="0 0 942.43 877.78" style="enable-background:new 0 0 942.43 877.78;" xml:space="preserve">
<style type="text/css">
	.st0{display:none;}
	.st1{display:inline;}
	.st2{fill:#CCCCCC;}
	.st3{fill:none;}
</style>
<g id="レイヤー_3" class="st0">
	<g class="st1">
		<path d="M124.87,812.51c0,0-24.84,24.87-38.56,11.15s11.14-38.58,11.14-38.58l630.19-630.19l27.43,27.43L124.87,812.51z"/>
		<path d="M747.45,272.85l-49.62,49.62c-27.75,27.75-73.16,27.75-100.91,0l-9.14-9.14c-27.75-27.75-27.75-73.16,0-100.91
			l49.62-49.62l-28.35-28.35l-51.84,51.84c-42.05,42.05-42.05,110.85,0,152.9l13.85,13.85c42.05,42.05,110.85,42.05,152.9,0
			l51.84-51.84L747.45,272.85z"/>
		<polygon class="st2" points="693.51,49.99 596.88,146.63 644.71,194.46 		"/>
		<polygon class="st2" points="860.26,216.74 715.93,265.69 763.62,313.37 		"/>
		<polygon class="st2" points="808.27,101.52 677.89,164.41 745.38,231.9 		"/>
	</g>
</g>
<g id="レイヤー_3のコピー">
	<path d="M124.48,832.41c0,0-24.39,25.31-38.36,11.84s10.44-38.77,10.44-38.77L715.25,164l27.92,26.93L124.48,832.41z"/>
	<g>
		<path class="st3" d="M620.66,281.01l9.3,8.97c28.25,27.25,73.65,26.42,100.9-1.82l23.47-24.34L642.31,155.77l-23.47,24.34
			C591.59,208.36,592.42,253.76,620.66,281.01z"/>
		<path d="M730.86,288.15c-27.24,28.25-72.65,29.07-100.9,1.82l-9.3-8.97c-28.25-27.25-29.07-72.65-1.83-100.9l23.47-24.34
			l-28.85-27.83l-25.65,26.59c-41.28,42.8-40.04,111.59,2.77,152.87l14.1,13.59c42.8,41.28,111.59,40.04,152.87-2.76l25.65-26.59
			l-28.86-27.83L730.86,288.15z"/>
		<polygon class="st0" points="805.76,297.08 607.72,106.08 574.31,140.71 588.21,154.12 613.46,127.94 642.31,155.77 
			617.07,181.95 729.09,289.99 754.34,263.82 783.19,291.65 757.95,317.82 772.36,331.72 		"/>
		
			<rect x="597.08" y="134.9" transform="matrix(0.6942 -0.7198 0.7198 0.6942 76.6185 490.2336)" class="st0" width="36.37" height="40.09"/>
		
			<rect x="737.96" y="270.78" transform="matrix(0.6942 -0.7198 0.7198 0.6942 21.8995 633.1861)" class="st0" width="36.37" height="40.09"/>
	</g>
	<polygon class="st2" points="708.33,29.57 613.46,127.94 662.15,174.91 	"/>
	<polygon class="st2" points="878.07,193.28 734.65,244.83 783.19,291.65 	"/>
	<polygon points="824,79.02 694.78,144.26 763.48,210.52 	"/>
</g>
</svg>
